<?xml version="1.0" standalone="no"?>
<!DOCTYPE svg PUBLIC "-//W3C//DTD SVG 20010904//EN"
 "http://www.w3.org/TR/2001/REC-SVG-20010904/DTD/svg10.dtd">
<svg version="1.0" xmlns="http://www.w3.org/2000/svg"
 width="213.000000pt" height="213.000000pt" viewBox="0 0 213.000000 213.000000"
 preserveAspectRatio="xMidYMid meet">
<metadata>
Created by potrace 1.14, written by Peter Selinger 2001-2017
</metadata>
<g transform="translate(0.000000,213.000000) scale(0.100000,-0.100000)"
fill="#000000" stroke="none">
<path d="M1313 2106 c-102 -33 -172 -96 -214 -192 -21 -46 -21 -59 -22 -769
l0 -721 -43 -3 -44 -2 0 832 0 832 -92 -6 c-168 -12 -300 -69 -409 -177 -111
-109 -160 -241 -152 -403 2 -43 -1 -94 -7 -112 -6 -18 -44 -77 -85 -130 -41
-54 -75 -103 -75 -110 0 -30 15 -48 56 -66 50 -21 54 -36 23 -85 -16 -26 -18
-38 -10 -53 7 -12 7 -22 2 -26 -6 -3 1 -27 16 -55 23 -45 25 -53 14 -95 -9
-36 -8 -52 3 -79 19 -45 40 -55 128 -62 166 -13 236 -58 301 -195 l35 -73 346
-1 346 0 1 25 c1 14 1 70 1 125 l-1 100 55 29 c66 35 119 93 142 158 14 39 22
49 47 54 40 8 90 47 122 95 19 29 26 54 28 98 2 53 6 62 38 95 77 77 105 186
73 284 -10 28 -24 56 -32 63 -12 10 -14 23 -8 58 23 138 -32 251 -143 297 -19
8 -33 22 -33 32 -1 64 -91 176 -175 217 -67 32 -169 42 -232 21z m193 -90
c127 -59 179 -205 119 -335 -30 -64 -26 -94 13 -89 21 2 33 14 54 58 15 30 29
66 31 79 2 14 8 26 14 28 17 6 71 -63 82 -104 20 -72 12 -90 -34 -73 -33 12
-55 -1 -55 -34 0 -14 13 -28 40 -44 151 -86 124 -307 -44 -357 -22 -7 -46 -21
-53 -32 -20 -30 8 -57 50 -49 l30 6 -6 -42 c-4 -32 -15 -51 -41 -75 -20 -18
-40 -33 -45 -33 -5 0 -17 24 -25 53 -21 72 -69 137 -100 137 -38 0 -43 -34
-12 -78 34 -51 46 -85 46 -138 0 -55 -18 -100 -59 -147 -47 -52 -104 -71 -195
-64 -81 7 -100 -2 -86 -39 8 -20 66 -44 107 -44 17 0 19 -7 18 -88 l-1 -87
-79 -2 c-133 -4 -120 -35 -120 274 l0 268 57 0 c64 0 99 23 124 82 19 43 18
66 -4 93 -16 19 -22 21 -40 11 -16 -9 -22 -21 -22 -46 0 -24 -7 -39 -25 -53
-28 -22 -71 -19 -84 7 -10 21 -8 482 2 499 9 14 46 16 65 3 8 -5 17 -23 21
-41 9 -45 34 -60 60 -36 23 21 21 61 -5 105 -21 36 -56 54 -109 56 l-40 2 1
111 c1 100 3 114 28 156 67 114 203 157 322 102z"/>
<path d="M1344 1951 c-69 -31 -114 -113 -94 -167 16 -42 70 -25 70 22 0 32 39
73 77 80 27 5 37 1 63 -24 16 -17 30 -39 30 -50 0 -44 62 -54 75 -12 7 23 -18
87 -48 118 -43 47 -114 60 -173 33z"/>
<path d="M1352 1688 c-30 -30 -2 -68 50 -68 13 0 36 -11 51 -25 21 -20 27 -35
27 -66 0 -40 -3 -45 -71 -103 -23 -20 -24 -30 -3 -51 32 -32 113 20 139 89 33
87 -4 180 -89 220 -40 19 -87 21 -104 4z"/>
<path d="M1680 1440 c-9 -16 -5 -25 20 -51 16 -18 30 -38 30 -46 0 -26 -20
-53 -39 -53 -10 0 -29 -8 -41 -18 -49 -40 21 -83 83 -51 61 31 88 102 63 162
-28 69 -93 100 -116 57z"/>
<path d="M1240 1395 c-18 -22 -6 -89 23 -134 80 -121 251 -116 325 8 25 41 15
71 -23 71 -17 0 -29 -9 -40 -30 -35 -68 -135 -79 -187 -20 -17 18 -28 42 -28
59 0 50 -43 78 -70 46z"/>
<path d="M1410 995 c-8 -9 -9 -25 -5 -42 23 -82 -31 -127 -105 -88 -25 13 -30
13 -48 -3 -28 -23 -14 -54 33 -77 120 -56 250 78 190 195 -17 33 -45 39 -65
15z"/>
<path d="M732 254 l-3 -33 351 -1 350 0 0 34 0 34 -348 0 -348 0 -2 -34z"/>
<path d="M844 159 c-2 -4 -3 -19 -2 -33 2 -25 4 -26 75 -26 64 0 73 -2 73 -18
0 -22 25 -47 56 -56 33 -10 74 10 85 44 l11 29 91 3 92 3 0 30 0 30 -238 0
c-132 0 -241 -3 -243 -6z"/>
</g>
</svg>
